<svg id="Layer_1" data-name="Layer 1" xmlns="http://www.w3.org/2000/svg" viewBox="0 0 108.13 108.13"><defs><style>.cls-1{fill:#020000;}.cls-2{fill:#f37028;}</style></defs><path class="cls-1" d="M111.21,56.85A54.07,54.07,0,1,1,57.14,2.78,54.07,54.07,0,0,1,111.21,56.85Z" transform="translate(-3.08 -2.78)"/><path class="cls-2" d="M89.31,99.12q1.17-.9,2.28-1.89c5.61-10.42,10-31-12.44-62-.21-.09-.39-.2-.6-.29l0,0c2,4.71,7.87,19.53,3.83,28A106.06,106.06,0,0,0,67.62,31.74a65.82,65.82,0,0,0-8.33-9.64C53,16.17,45.21,11.63,35.8,10.44a78,78,0,0,1,9.35,14,57.53,57.53,0,0,1,3.61,8.41c3,9,3.53,19.31-3.9,27.72,0,0-2.72-15-9.24-24.92A28.6,28.6,0,0,0,35,40c-.3,5.7-1.15,11.16-4.82,22.21a56.84,56.84,0,0,0-3,16.91C27,91.16,31,101.35,36.74,107a53.68,53.68,0,0,0,14.54,3.34c-.88-1.54.18-3.5-.38-5.75-1.39-5.55-.77-12.88,3.07-20.08,3.92-7.36,4.56-11.74,4.77-13.67a6.41,6.41,0,0,0,0-1.28C62.67,76.07,62.32,85,62.32,85,74,75.61,62,56.23,62,56.23,80.63,61.86,83,89.9,83,89.9c3.67-5.2.29-16.86.29-16.86C89.05,84.33,90.17,92.86,89.31,99.12Z" transform="translate(-3.08 -2.78)"/></svg>